#!OML:ASF H:\Dans Jumps\Project 1\Capture day 1\Session 1\subject.ASF
:FULLY-SPECIFIED
:DEGREES
425
root 0.486453 17.7191 -1.75538 7.30978 0.985374 -0.811255
lowerback -0.874392 -0.311562 -0.762731
upperback 4.49749 -0.459593 1.60849
thorax 5.15628 -0.298252 2.06843
lowerneck -12.3653 0.0362381 -1.89436
upperneck 35.5105 0.311046 0.769782
head 14.2013 -0.0122668 0.697792
rclavicle 1.88845e-015 4.77083e-015
rhumerus -19.2778 -21.6644 -82.1182
rradius 21.2472
rwrist 37.4237
rhand -19.9331 -26.2667
rfingers 7.12502
rthumb 6.4044 -56.1499
lclavicle 1.88845e-015 4.77083e-015
lhumerus -18.1113 0.69323 89.626
lradius 15.5259
lwrist -1.26434
lhand -25.511 -4.97319
lfingers 7.12502
lthumb 1.01807 25.0041
rfemur -15.6999 -2.78627 18.889
rtibia 24.6209
rfoot -14.0654 -2.25862
rtoes 11.0877
lfemur -14.7849 6.72271 -18.3271
ltibia 20.2724
lfoot -10.2138 4.71514
ltoes 3.41742
426
root 0.485841 17.7187 -1.75339 7.30684 0.970957 -0.813528
lowerback -0.874384 -0.307049 -0.755279
upperback 4.50125 -0.453683 1.60419
thorax 5.15984 -0.294954 2.06011
lowerneck -12.3581 0.0409172 -1.89119
upperneck 35.4968 0.317876 0.767173
head 14.1933 -0.00916066 0.697083
rclavicle -1.98785e-015 -1.78906e-014
rhumerus -19.3246 -21.6943 -82.1299
rradius 21.2274
rwrist 37.456
rhand -19.9198 -26.2734
rfingers 7.12502
rthumb 6.4172 -56.1562
lclavicle -1.98785e-015 -1.78906e-014
lhumerus -18.105 0.673811 89.6456
lradius 15.5589
lwrist -1.22313
lhand -25.5198 -4.9747
lfingers 7.12502
lthumb 1.00956 25.0027
rfemur -15.6956 -2.78335 18.8933
rtibia 24.6283
rfoot -14.0762 -2.25071
rtoes 11.0852
lfemur -14.7779 6.72898 -18.3216
ltibia 20.284
lfoot -10.2247 4.72748
ltoes 3.40787
427
root 0.485264 17.7184 -1.75138 7.3035 0.95678 -0.815763
lowerback -0.875141 -0.303025 -0.746864
upperback 4.50415 -0.448483 1.60054
thorax 5.16297 -0.291975 2.05188
lowerneck -12.3472 0.0453677 -1.89126
upperneck 35.4834 0.324798 0.76564
head 14.1846 -0.00630378 0.697388
rclavicle 5.96354e-016 -1.19271e-015
rhumerus -19.3748 -21.7181 -82.1387
rradius 21.211
rwrist 37.485
rhand -19.9094 -26.2796
rfingers 7.12502
rthumb 6.42725 -56.1621
lclavicle 5.96354e-016 -1.19271e-015
lhumerus -18.1019 0.642916 89.6679
lradius 15.6048
lwrist -1.1585
lhand -25.5292 -4.97951
lfingers 7.12502
lthumb 1.00042 24.9979
rfemur -15.6906 -2.7803 18.8977
rtibia 24.6353
rfoot -14.0865 -2.24404
rtoes 11.0759
lfemur -14.7684 6.73726 -18.3163
ltibia 20.2917
lfoot -10.2326 4.73786
ltoes 3.38916
428
root 0.484724 17.7181 -1.74937 7.3016 0.944614 -0.815319
lowerback -0.876759 -0.299687 -0.739045
upperback 4.5058 -0.444136 1.59621
thorax 5.16531 -0.289412 2.04323
lowerneck -12.3364 0.0497942 -1.89241
upperneck 35.4717 0.331991 0.764155
head 14.1766 -0.00347602 0.69796
rclavicle -2.88238e-015 -3.18055e-015
rhumerus -19.4283 -21.7341 -82.1464
rradius 21.202
rwrist 37.5062
rhand -19.903 -26.2811
rfingers 7.12502
rthumb 6.43345 -56.1634
lclavicle -2.88238e-015 -3.18055e-015
lhumerus -18.0985 0.600822 89.692
lradius 15.6593
lwrist -1.07304
lhand -25.5297 -4.97236
lfingers 7.12502
lthumb 0.999974 25.005
rfemur -15.6861 -2.77975 18.899
rtibia 24.6415
rfoot -14.0961 -2.23643
rtoes 11.0725
lfemur -14.7591 6.74506 -18.3146
ltibia 20.2967
lfoot -10.2395 4.74631
ltoes 3.3705
429
root 0.484175 17.7179 -1.74739 7.30136 0.933867 -0.814574
lowerback -0.879062 -0.297616 -0.731286
upperback 4.50556 -0.441514 1.59305
thorax 5.16615 -0.287714 2.03573
lowerneck -12.3245 0.0539093 -1.89678
upperneck 35.4615 0.339759 0.762188
head 14.1691 -0.000907167 0.699002
rclavicle -3.97569e-016 -2.78299e-015
rhumerus -19.485 -21.7374 -82.1524
rradius 21.2001
rwrist 37.5191
rhand -19.9016 -26.2779
rfingers 7.12502
rthumb 6.43484 -56.1601
lclavicle -3.97569e-016 -2.78299e-015
lhumerus -18.0955 0.548679 89.7193
lradius 15.7212
lwrist -0.969992
lhand -25.5304 -4.95954
lfingers 7.12502
lthumb 0.999303 25.0179
rfemur -15.6817 -2.77883 18.8998
rtibia 24.6452
rfoot -14.1045 -2.22865
rtoes 11.0747
lfemur -14.7516 6.75376 -18.3136
ltibia 20.3003
lfoot -10.2456 4.75306
ltoes 3.3532
430
root 0.483598 17.7177 -1.74555 7.30188 0.927405 -0.81437
lowerback -0.880476 -0.297043 -0.721796
upperback 4.50488 -0.440977 1.59049
thorax 5.16609 -0.286981 2.02775
lowerneck -12.3163 0.0577024 -1.90102
upperneck 35.4527 0.347333 0.759547
head 14.1631 0.00149363 0.699741
rclavicle -2.48481e-015 -2.38542e-015
rhumerus -19.5408 -21.7295 -82.1593
rradius 21.204
rwrist 37.5219
rhand -19.9091 -26.262
rfingers 7.12502
rthumb 6.42762 -56.1444
lclavicle -2.48481e-015 -2.38542e-015
lhumerus -18.0897 0.48318 89.7487
lradius 15.7903
lwrist -0.850908
lhand -25.5221 -4.9258
lfingers 7.12502
lthumb 1.00727 25.0516
rfemur -15.6767 -2.77952 18.9012
rtibia 24.6464
rfoot -14.1121 -2.22144
rtoes 11.0812
lfemur -14.7456 6.7604 -18.312
ltibia 20.3033
lfoot -10.2516 4.75742
ltoes 3.33431
431
root 0.482962 17.7175 -1.74374 7.30256 0.924472 -0.816078
lowerback -0.881528 -0.296994 -0.709165
upperback 4.504 -0.441271 1.58837
thorax 5.16563 -0.286535 2.01844
lowerneck -12.312 0.0608806 -1.90348
upperneck 35.4465 0.354337 0.754879
head 14.1592 0.00360279 0.699291
rclavicle -3.18055e-015 1.63003e-014
rhumerus -19.593 -21.7176 -82.1664
rradius 21.2077
rwrist 37.5179
rhand -19.9115 -26.2498
rfingers 7.12502
rthumb 6.42524 -56.1324
lclavicle -3.18055e-015 1.63003e-014
lhumerus -18.0806 0.403848 89.7804
lradius 15.8643
lwrist -0.717885
lhand -25.5108 -4.87445
lfingers 7.12502
lthumb 1.01821 25.1029
rfemur -15.6695 -2.7792 18.9048
rtibia 24.6441
rfoot -14.1187 -2.21658
rtoes 11.0972
lfemur -14.7403 6.76539 -18.3078
ltibia 20.306
lfoot -10.2588 4.75966
ltoes 3.316
432
root 0.482231 17.7174 -1.7421 7.30409 0.925843 -0.817772
lowerback -0.881735 -0.298267 -0.697001
upperback 4.50304 -0.443351 1.58719
thorax 5.16468 -0.287013 2.01027
lowerneck -12.3089 0.0635298 -1.90788
upperneck 35.4396 0.360492 0.751981
head 14.1552 0.0053318 0.699773
rclavicle 1.59028e-015 -3.18055e-015
rhumerus -19.64 -21.7008 -82.1732
rradius 21.211
rwrist 37.5096
rhand -19.9083 -26.2414
rfingers 7.12502
rthumb 6.42832 -56.1239
lclavicle 1.59028e-015 -3.18055e-015
lhumerus -18.0677 0.313401 89.8145
lradius 15.9418
lwrist -0.577319
lhand -25.497 -4.81637
lfingers 7.12502
lthumb 1.03152 25.1609
rfemur -15.6619 -2.77841 18.9087
rtibia 24.6394
rfoot -14.1257 -2.21462
rtoes 11.1153
lfemur -14.7377 6.76897 -18.3032
ltibia 20.3088
lfoot -10.265 4.75895
ltoes 3.3023
433
root 0.481552 17.7173 -1.74042 7.30447 0.930778 -0.820021
lowerback -0.882448 -0.301 -0.683799
upperback 4.50357 -0.447494 1.58733
thorax 5.16569 -0.288528 2.00278
lowerneck -12.3047 0.0662544 -1.91391
upperneck 35.4293 0.367247 0.748856
head 14.1494 0.00710059 0.700511
rclavicle -2.18663e-015 6.36111e-015
rhumerus -19.6802 -21.6817 -82.1786
rradius 21.2109
rwrist 37.504
rhand -19.8984 -26.2348
rfingers 7.12502
rthumb 6.43795 -56.1169
lclavicle -2.18663e-015 6.36111e-015
lhumerus -18.0478 0.21542 89.8512
lradius 16.0188
lwrist -0.434487
lhand -25.4854 -4.74679
lfingers 7.12502
lthumb 1.04277 25.2304
rfemur -15.6513 -2.78189 18.9133
rtibia 24.6324
rfoot -14.1331 -2.21366
rtoes 11.1291
lfemur -14.7341 6.77014 -18.2977
ltibia 20.3118
lfoot -10.2714 4.75665
ltoes 3.29462
